<svg width="52" height="52" viewBox="0 0 52 52" fill="none" xmlns="http://www.w3.org/2000/svg">
<path d="M0 26C0 11.6402 11.6407 0 26 0C40.3593 0 52 11.6402 52 26C52 40.3598 40.3593 52 26 52C11.6407 52 0 40.3598 0 26Z" fill="#7D8BAE"/>
<path d="M13.7679 12C13.3207 12 12.8531 12.1504 12.5118 12.4914C11.8294 13.1752 11.8294 14.3223 12.5118 15.0061L23.488 25.99L12.5118 36.9738C11.8294 37.6576 11.8294 38.8047 12.5118 39.4885C13.1943 40.1705 14.3414 40.1705 15.0239 39.4885L26 28.5047L36.9761 39.4885C37.6586 40.1705 38.8057 40.1705 39.4882 39.4885C40.1706 38.8047 40.1706 37.6576 39.4882 36.9738L28.512 25.99L39.4882 15.0061C40.1706 14.3223 40.1706 13.1752 39.4882 12.4914C39.1469 12.1504 38.6791 12 38.2322 12C37.785 12 37.3175 12.1504 36.9761 12.4914L26 23.4753L15.0239 12.4914C14.6826 12.1504 14.215 12 13.7679 12Z" fill="white"/>
</svg>
