<svg width="18" height="18" viewBox="0 0 18 18" fill="none" xmlns="http://www.w3.org/2000/svg">
<path d="M9.01301 0.665771C4.41052 0.665771 0.679688 4.3966 0.679688 8.99909C0.679688 13.6016 4.41052 17.3324 9.01301 17.3324C13.2463 17.3324 16.7997 14.1591 17.2947 9.98908C17.348 9.53158 17.0222 9.10577 16.5647 9.05077C16.108 8.99744 15.6813 9.32325 15.628 9.78075C15.2322 13.1141 12.3997 15.6657 9.01301 15.6657C5.33135 15.6657 2.34635 12.6808 2.34635 8.99909C2.34635 5.31743 5.33135 2.33244 9.01301 2.33244C9.78218 2.33244 10.5438 2.4716 11.253 2.72326C11.6863 2.8766 12.1405 2.63576 12.2947 2.20243C12.448 1.76826 12.233 1.28828 11.7997 1.13411C10.913 0.819948 9.97218 0.665771 9.01301 0.665771ZM16.513 2.33244C16.2997 2.33244 16.0763 2.40744 15.9138 2.56661L8.64801 9.72826C8.43384 9.93909 8.21801 9.89826 8.04968 9.64993L7.21634 8.42577C6.96134 8.04994 6.42635 7.94077 6.04469 8.1916C5.66219 8.44243 5.55469 8.9616 5.80969 9.33743L6.64302 10.5616C7.39385 11.6691 8.86301 11.8158 9.82051 10.8741L17.1122 3.73909C17.4372 3.41909 17.4372 2.88661 17.1122 2.56661C16.9497 2.40661 16.7263 2.33244 16.513 2.33244Z" fill="#7D8BAE"/>
</svg>
