<svg width="17" height="18" viewBox="0 0 17 18" fill="none" xmlns="http://www.w3.org/2000/svg">
<path fill-rule="evenodd" clip-rule="evenodd" d="M10.1728 4.71837L11.8868 2.91183L15.0206 6.04591L13.3197 7.82082L10.1728 4.71837ZM8.96801 5.9881L3.00316 12.2747C2.85451 12.4314 2.76057 12.6319 2.7354 12.8464L2.36512 16.0014L5.40506 15.725C5.64533 15.7032 5.8696 15.5952 6.03653 15.421L12.1088 9.08445L8.96801 5.9881ZM12.8068 1.35683C12.2847 0.834685 11.4347 0.845824 10.9265 1.38147L1.4045 11.4171C1.20941 11.6227 1.08611 11.886 1.05307 12.1675L0.564203 16.3329C0.467028 17.1609 1.15635 17.8685 1.98658 17.793L6.09911 17.4191C6.41447 17.3905 6.70883 17.2487 6.92792 17.0201L16.5804 6.94751C17.0744 6.43203 17.0657 5.61624 16.5609 5.11137L12.8068 1.35683Z" fill="#7D8BAE"/>
</svg>
