<svg width="30" height="37" viewBox="0 0 30 37" fill="none" xmlns="http://www.w3.org/2000/svg">
<path fill-rule="evenodd" clip-rule="evenodd" d="M25.9987 14.9757C25.9987 20.4795 22.5787 25.4398 14.9987 32.4077C7.41873 25.4398 3.9987 20.4795 3.9987 14.9757C3.9987 9.18295 8.83769 4.33341 14.9987 4.33341C21.1597 4.33341 25.9987 9.18295 25.9987 14.9757ZM29.6654 14.9757C29.6654 22.6868 24.4287 28.9733 15.6586 36.7512C15.2828 37.0845 14.7146 37.0845 14.3388 36.7512C5.56873 28.9733 0.332031 22.6868 0.332031 14.9757C0.332031 7.07308 6.89852 0.666748 14.9987 0.666748C23.0989 0.666748 29.6654 7.07308 29.6654 14.9757ZM18.6654 15.3334C18.6654 17.3585 17.0237 19.0001 14.9987 19.0001C12.9737 19.0001 11.332 17.3585 11.332 15.3334C11.332 13.3084 12.9737 11.6667 14.9987 11.6667C17.0237 11.6667 18.6654 13.3084 18.6654 15.3334ZM22.332 15.3334C22.332 19.3835 19.0488 22.6667 14.9987 22.6667C10.9486 22.6667 7.66536 19.3835 7.66536 15.3334C7.66536 11.2833 10.9486 8.00008 14.9987 8.00008C19.0488 8.00008 22.332 11.2833 22.332 15.3334Z" fill="#24264E"/>
</svg>
