<svg width="16" height="20" viewBox="0 0 16 20" fill="none" xmlns="http://www.w3.org/2000/svg">
<path d="M11.3685 20H4.63253C4.04188 20.0007 3.47175 19.7744 3.03142 19.3643C2.5911 18.9542 2.31156 18.3893 2.2464 17.7778L0.884267 5H0.8C0.587827 5 0.384344 4.9122 0.234315 4.75592C0.0842855 4.59964 0 4.38768 0 4.16667C0 3.94565 0.0842855 3.73369 0.234315 3.57741C0.384344 3.42113 0.587827 3.33333 0.8 3.33333H4.8V2.5C4.80085 1.83723 5.05398 1.20186 5.50388 0.733207C5.95378 0.264557 6.56374 0.000881931 7.2 0L8.8 0C9.43626 0.000881931 10.0462 0.264557 10.4961 0.733207C10.946 1.20186 11.1992 1.83723 11.2 2.5V3.33333H15.2C15.4122 3.33333 15.6157 3.42113 15.7657 3.57741C15.9157 3.73369 16 3.94565 16 4.16667C16 4.38768 15.9157 4.59964 15.7657 4.75592C15.6157 4.9122 15.4122 5 15.2 5H15.1168L13.7525 17.7778C13.6879 18.3891 13.4088 18.954 12.9688 19.3641C12.5288 19.7742 11.959 20.0007 11.3685 20ZM2.4928 5L3.84 17.5922C3.86155 17.796 3.95457 17.9844 4.10122 18.1211C4.24787 18.2579 4.43783 18.3335 4.63467 18.3333H11.3707C11.5675 18.3335 11.7575 18.2579 11.9041 18.1211C12.0508 17.9844 12.1438 17.796 12.1653 17.5922L13.5061 5H2.4928ZM7.2 1.66667C6.98791 1.66696 6.78459 1.75485 6.63463 1.91107C6.48466 2.06729 6.40028 2.27908 6.4 2.5V3.33333H9.6V2.5C9.59972 2.27908 9.51534 2.06729 9.36537 1.91107C9.21541 1.75485 9.01209 1.66696 8.8 1.66667H7.2ZM9.6 15.8333C9.38791 15.833 9.1846 15.7451 9.03463 15.5889C8.88466 15.4327 8.80028 15.2209 8.8 15V8.33333C8.8 8.11232 8.88429 7.90036 9.03432 7.74408C9.18434 7.5878 9.38783 7.5 9.6 7.5C9.81217 7.5 10.0157 7.5878 10.1657 7.74408C10.3157 7.90036 10.4 8.11232 10.4 8.33333V15C10.3997 15.2209 10.3153 15.4327 10.1654 15.5889C10.0154 15.7451 9.81209 15.833 9.6 15.8333ZM6.4 15.8333C6.18773 15.8333 5.98414 15.7456 5.83394 15.5893C5.68374 15.4331 5.59922 15.2211 5.59893 15V8.33333C5.59893 8.11232 5.68322 7.90036 5.83325 7.74408C5.98328 7.5878 6.18676 7.5 6.39893 7.5C6.61111 7.5 6.81459 7.5878 6.96462 7.74408C7.11465 7.90036 7.19893 8.11232 7.19893 8.33333V15C7.19865 15.2207 7.11442 15.4324 6.96468 15.5885C6.81495 15.7447 6.6119 15.8327 6.4 15.8333Z" fill="#7D8BAE"/>
</svg>
