<svg width="22" height="24" viewBox="0 0 22 24" fill="none" xmlns="http://www.w3.org/2000/svg">
<path fill-rule="evenodd" clip-rule="evenodd" d="M11 12.9012C14.5516 12.9012 17.4308 10.0132 17.4308 6.45062C17.4308 2.88804 14.5516 0 11 0C7.44835 0 4.56918 2.88804 4.56918 6.45062C4.56918 10.0132 7.44835 12.9012 11 12.9012ZM11 12.9012C9.47988 12.9012 7.97466 13.1682 6.57025 13.6869C5.16585 14.2056 3.88978 14.9658 2.8149 15.9242C1.74001 16.8826 0.88737 18.0204 0.305648 19.2726C0.276224 19.3359 0.247523 19.3995 0.219545 19.4632C-0.638606 21.4198 1.15202 23.2222 3.28301 23.2222H18.717C20.848 23.2222 22.6386 21.4198 21.7805 19.4632C21.7525 19.3995 21.7238 19.3359 21.6944 19.2726C21.1126 18.0204 20.26 16.8826 19.1851 15.9242C18.1102 14.9658 16.8341 14.2056 15.4297 13.6869C14.0253 13.1682 12.5201 12.9012 11 12.9012Z" fill="#7D8BAE"/>
</svg>
