<svg width="163" height="163" viewBox="0 0 163 163" fill="none" xmlns="http://www.w3.org/2000/svg">
<rect width="163" height="163" rx="4" fill="#EEEEEE"/>
<path d="M78.0013 93.9998C83.5241 93.9998 88.0013 89.5227 88.0013 83.9998C88.0013 78.477 83.5241 73.9998 78.0013 73.9998C72.4785 73.9998 68.0013 78.477 68.0013 83.9998C68.0013 89.5227 72.4785 93.9998 78.0013 93.9998Z" fill="#BEC5D7"/>
<path d="M104.668 57.3332H94.1013L89.968 52.8332C89.3468 52.1511 88.5902 51.6062 87.7465 51.2331C86.9027 50.8601 85.9905 50.6671 85.068 50.6665H70.9346C69.068 50.6665 67.268 51.4665 66.0013 52.8332L61.9013 57.3332H51.3346C47.668 57.3332 44.668 60.3332 44.668 63.9998V104C44.668 107.667 47.668 110.667 51.3346 110.667H104.668C108.335 110.667 111.335 107.667 111.335 104V63.9998C111.335 60.3332 108.335 57.3332 104.668 57.3332ZM78.0013 100.667C68.8013 100.667 61.3346 93.1998 61.3346 83.9998C61.3346 74.7998 68.8013 67.3332 78.0013 67.3332C87.2013 67.3332 94.668 74.7998 94.668 83.9998C94.668 93.1998 87.2013 100.667 78.0013 100.667Z" fill="#BEC5D7"/>
</svg>
