<svg width="16" height="17" viewBox="0 0 16 17" fill="none" xmlns="http://www.w3.org/2000/svg">
<path d="M8.10661 1.34669C7.88594 1.30899 7.64527 1.40066 7.48193 1.59859C4.27593 5.47398 3.33594 7.46998 3.33594 10.0783C3.33594 12.6752 5.42527 14.7801 8.0026 14.7801C10.5799 14.7801 12.6693 12.6752 12.6693 10.0783C12.6693 9.12059 12.4566 8.38803 11.9819 7.62254C11.7779 7.29389 10.7619 5.94719 10.4819 5.52358C9.79327 4.48267 9.19994 3.32576 8.62794 1.78744C8.53794 1.5463 8.32727 1.3844 8.10661 1.34669ZM7.81461 3.30741C8.25594 4.36391 8.82993 5.45133 9.37727 6.2792C9.68993 6.75086 10.6693 8.06745 10.8359 8.33629C11.1826 8.89478 11.3359 9.38069 11.3359 10.0783C11.3359 11.9332 9.84327 13.4367 8.0026 13.4367C6.16194 13.4367 4.6786 11.9332 4.66927 10.0783C4.6586 7.94379 5.48527 6.26595 7.81461 3.30741ZM7.08527 6.74346C6.9226 6.79521 6.77461 6.91216 6.68994 7.07681C6.13261 8.16289 5.94194 9.24493 6.02327 10.1832C6.05527 10.5528 6.36527 10.8243 6.73193 10.7921C7.0986 10.7598 7.38861 10.4271 7.35661 10.0575C7.29661 9.36523 7.43993 8.55874 7.87727 7.70655C8.0466 7.37723 7.9126 6.97466 7.58594 6.80395C7.4226 6.71873 7.24727 6.69111 7.08527 6.74346Z" fill="#24264E"/>
</svg>
