<svg width="48" height="48" viewBox="0 0 48 48" fill="none" xmlns="http://www.w3.org/2000/svg">
<rect width="48" height="48" rx="24" fill="#EEF1F7"/>
<path fill-rule="evenodd" clip-rule="evenodd" d="M26.2303 17.6248L28.5158 15.2161L32.6942 19.3949L30.4263 21.7614L26.2303 17.6248ZM24.624 19.3178L16.5946 27.7804C16.4459 27.937 16.352 28.1376 16.3268 28.3521L15.8202 32.6688L19.9976 32.289C20.2379 32.2672 20.4622 32.1592 20.6291 31.985L28.8117 23.4463L24.624 19.3178ZM29.7423 13.1428C29.0462 12.4466 27.913 12.4614 27.2353 13.1756L14.5393 26.5564C14.2792 26.8306 14.1148 27.1816 14.0708 27.557L13.4189 33.1108C13.2894 34.2148 14.2085 35.1583 15.3154 35.0576L20.7988 34.5592C21.2193 34.5209 21.6118 34.332 21.9039 34.0272L34.7739 20.597C35.4325 19.9097 35.421 18.822 34.7479 18.1488L29.7423 13.1428Z" fill="#7D8BAE"/>
</svg>
