<svg width="20" height="20" viewBox="0 0 20 20" fill="none" xmlns="http://www.w3.org/2000/svg">
<rect width="20" height="20" rx="10" fill="#FF8F8F" fill-opacity="0.2"/>
<path fill-rule="evenodd" clip-rule="evenodd" d="M11.2719 6.6902L12.35 5.55395L14.321 7.52518L13.2512 8.64154L11.2719 6.6902ZM10.5141 7.48882L6.84738 11.3533C6.69874 11.51 6.6048 11.7106 6.57963 11.9251L6.36112 13.7868L8.13489 13.6256C8.37516 13.6037 8.59943 13.4958 8.76636 13.3216L12.4896 9.43632L10.5141 7.48882ZM12.9286 4.57591C12.6002 4.2475 12.0656 4.2545 11.7459 4.59141L5.75693 10.9035C5.63421 11.0328 5.55667 11.1984 5.53589 11.3754L5.2284 13.9953C5.16728 14.5161 5.60084 14.9612 6.12303 14.9137L8.70967 14.6785C8.90802 14.6605 9.09316 14.5714 9.23096 14.4276L15.3021 8.09225C15.6128 7.76803 15.6073 7.25493 15.2898 6.93739L12.9286 4.57591Z" fill="#FF8F8F"/>
</svg>
