<svg width="64" height="64" viewBox="0 0 64 64" fill="none" xmlns="http://www.w3.org/2000/svg">
<rect width="64" height="64" rx="8" fill="#EEF1F7"/>
<path d="M28.1167 46.9375C27.5453 46.9375 27.066 46.7402 26.6788 46.3456C26.2916 45.9509 26.0987 45.4607 26.1 44.875C26.1 44.2906 26.2936 43.8011 26.6808 43.4065C27.068 43.0119 27.5466 42.8139 28.1167 42.8125H48.2833C48.8547 42.8125 49.334 43.0105 49.7212 43.4065C50.1084 43.8025 50.3013 44.292 50.3 44.875C50.3 45.4594 50.1064 45.9496 49.7192 46.3456C49.332 46.7416 48.8534 46.9389 48.2833 46.9375H28.1167ZM28.1167 34.5625C27.5453 34.5625 27.066 34.3652 26.6788 33.9706C26.2916 33.5759 26.0987 33.0857 26.1 32.5C26.1 31.9156 26.2936 31.4254 26.6808 31.0294C27.068 30.6334 27.5466 30.4361 28.1167 30.4375H48.2833C48.8547 30.4375 49.334 30.6355 49.7212 31.0315C50.1084 31.4275 50.3013 31.917 50.3 32.5C50.3 33.0844 50.1064 33.5746 49.7192 33.9706C49.332 34.3666 48.8534 34.5639 48.2833 34.5625H28.1167ZM28.1167 22.1875C27.5453 22.1875 27.066 21.9902 26.6788 21.5956C26.2916 21.2009 26.0987 20.7108 26.1 20.125C26.1 19.5406 26.2936 19.0504 26.6808 18.6544C27.068 18.2584 27.5466 18.0611 28.1167 18.0625H48.2833C48.8547 18.0625 49.334 18.2605 49.7212 18.6565C50.1084 19.0525 50.3013 19.542 50.3 20.125C50.3 20.7094 50.1064 21.1996 49.7192 21.5956C49.332 21.9916 48.8534 22.1889 48.2833 22.1875H28.1167ZM18.0333 49C16.9242 49 15.9743 48.5964 15.1838 47.7893C14.3933 46.9822 13.9987 46.0107 14 44.875C14 43.7406 14.3953 42.7699 15.1858 41.9627C15.9763 41.1556 16.9255 40.7514 18.0333 40.75C19.1425 40.75 20.0924 41.1542 20.8829 41.9627C21.6734 42.7712 22.068 43.742 22.0667 44.875C22.0667 46.0094 21.6714 46.9808 20.8809 47.7893C20.0903 48.5978 19.1412 49.0014 18.0333 49ZM18.0333 36.625C16.9242 36.625 15.9743 36.2214 15.1838 35.4143C14.3933 34.6072 13.9987 33.6357 14 32.5C14 31.3656 14.3953 30.3942 15.1858 29.5857C15.9763 28.7772 16.9255 28.3736 18.0333 28.375C19.1425 28.375 20.0924 28.7793 20.8829 29.5878C21.6734 30.3963 22.068 31.367 22.0667 32.5C22.0667 33.6344 21.6714 34.6058 20.8809 35.4143C20.0903 36.2228 19.1412 36.6264 18.0333 36.625ZM18.0333 24.25C16.9242 24.25 15.9743 23.8464 15.1838 23.0393C14.3933 22.2322 13.9987 21.2608 14 20.125C14 18.9906 14.3953 18.0192 15.1858 17.2107C15.9763 16.4022 16.9255 15.9986 18.0333 16C19.1425 16 20.0924 16.4043 20.8829 17.2128C21.6734 18.0213 22.068 18.992 22.0667 20.125C22.0667 21.2594 21.6714 22.2308 20.8809 23.0393C20.0903 23.8478 19.1412 24.2514 18.0333 24.25Z" fill="#7D8BAE"/>
</svg>
