<svg width="42" height="42" viewBox="0 0 42 42" fill="none" xmlns="http://www.w3.org/2000/svg">
<circle cx="21" cy="21" r="20.5" stroke="#BEC5D7"/>
<path d="M31.56 21.25C31.56 20.47 31.49 19.72 31.36 19H21V23.255H26.92C26.665 24.63 25.89 25.795 24.725 26.575V29.335H28.28C30.36 27.42 31.56 24.6 31.56 21.25Z" fill="#4285F4"/>
<path d="M21.0019 31.9998C23.9719 31.9998 26.4619 31.0148 28.2819 29.3348L24.7269 26.5748C23.7419 27.2348 22.4819 27.6248 21.0019 27.6248C18.1369 27.6248 15.7119 25.6898 14.8469 23.0898H11.1719V25.9398C12.9819 29.5348 16.7019 31.9998 21.0019 31.9998Z" fill="#34A853"/>
<path d="M14.845 23.0901C14.625 22.4301 14.5 21.7251 14.5 21.0001C14.5 20.2751 14.625 19.5701 14.845 18.9101V16.0601H11.17C10.4 17.5929 9.99932 19.2847 10 21.0001C10 22.7751 10.425 24.4551 11.17 25.9401L14.845 23.0901Z" fill="#FBBC05"/>
<path d="M21.0019 14.375C22.6169 14.375 24.0669 14.93 25.2069 16.02L28.3619 12.865C26.4569 11.09 23.9669 10 21.0019 10C16.7019 10 12.9819 12.465 11.1719 16.06L14.8469 18.91C15.7119 16.31 18.1369 14.375 21.0019 14.375Z" fill="#EA4335"/>
</svg>
