<svg width="42" height="42" viewBox="0 0 42 42" fill="none" xmlns="http://www.w3.org/2000/svg">
<circle cx="21" cy="21" r="20.5" stroke="#BEC5D7"/>
<path d="M33 21.0003C33 14.3728 27.6274 9.00027 21 9.00027C14.3726 9.00027 9 14.3728 9 21.0003C9 26.9898 13.3882 31.9543 19.125 32.8545V24.469H16.0781V21.0003H19.125V18.3565C19.125 15.349 20.9165 13.6878 23.6576 13.6878C24.9705 13.6878 26.3438 13.9221 26.3438 13.9221V16.8753H24.8306C23.3399 16.8753 22.875 17.8003 22.875 18.7493V21.0003H26.2031L25.6711 24.469H22.875V32.8545C28.6118 31.9543 33 26.9898 33 21.0003Z" fill="#1877F2"/>
<path d="M25.6711 24.4688L26.2031 21H22.875V18.749C22.875 17.8 23.3399 16.875 24.8306 16.875H26.3438V13.9219C26.3438 13.9219 24.9705 13.6875 23.6576 13.6875C20.9165 13.6875 19.125 15.3487 19.125 18.3562V21H16.0781V24.4688H19.125V32.8542C19.7359 32.9501 20.3621 33 21 33C21.6379 33 22.2641 32.9501 22.875 32.8542V24.4688H25.6711Z" fill="white"/>
</svg>
