<svg width="17" height="14" viewBox="0 0 17 14" fill="none" xmlns="http://www.w3.org/2000/svg">
<path fill-rule="evenodd" clip-rule="evenodd" d="M2.67259 0.589256L2.08333 0L0.904822 1.17851L1.49408 1.76777L2.90225 3.17594C1.2648 4.39758 0 5.78891 0 6.59518C0 8.26184 5.40455 12.4285 8.33333 12.4285C9.1743 12.4285 10.2194 12.085 11.282 11.5557L12.3274 12.6011L12.9167 13.1904L14.0952 12.0118L13.5059 11.4226L2.67259 0.589256ZM10.0283 10.302L9.45971 9.7334C9.10787 9.8597 8.72864 9.92851 8.33333 9.92851C6.49238 9.92851 5 8.43613 5 6.59518C5 6.19987 5.06881 5.82064 5.19511 5.4688L4.09448 4.36817C4.07937 4.37909 4.06429 4.39003 4.04922 4.40099C3.26144 4.97443 2.59176 5.57215 2.13899 6.08438C1.95533 6.29217 1.8268 6.46408 1.74337 6.59518C1.8268 6.72627 1.95533 6.89819 2.13899 7.10597C2.59176 7.6182 3.26144 8.21592 4.04922 8.78936C4.83355 9.36029 5.68626 9.87167 6.48418 10.2336C7.31287 10.6095 7.94648 10.7618 8.33333 10.7618C8.69583 10.7618 9.27499 10.6281 10.0283 10.302ZM7.94194 8.21563C7.33584 8.06976 6.85875 7.59267 6.71288 6.98657L7.94194 8.21563ZM7.20696 3.45696L8.72472 4.97472C9.33083 5.12059 9.80792 5.59768 9.95379 6.20379L11.4716 7.72156C11.5979 7.36972 11.6667 6.99048 11.6667 6.59518C11.6667 4.75423 10.1743 3.26184 8.33333 3.26184C7.93803 3.26184 7.55879 3.33066 7.20696 3.45696ZM12.6174 8.78936L12.5722 8.82218L13.7644 10.0144C15.4019 8.79278 16.6667 7.40145 16.6667 6.59518C16.6667 4.92851 11.2621 0.761845 8.33333 0.761845C7.49237 0.761845 6.44728 1.10538 5.38462 1.63462L6.63837 2.88837C7.39168 2.56225 7.97084 2.42851 8.33333 2.42851C8.72018 2.42851 9.3538 2.58082 10.1825 2.95673C10.9804 3.31868 11.8331 3.83007 12.6174 4.40099C13.4052 4.97443 14.0749 5.57215 14.5277 6.08438C14.7113 6.29217 14.8399 6.46409 14.9233 6.59518C14.8399 6.72628 14.7113 6.89819 14.5277 7.10597C14.0749 7.6182 13.4052 8.21592 12.6174 8.78936ZM15.0233 6.41123C15.024 6.40928 15.0243 6.40832 15.0243 6.40834C15.0242 6.40836 15.0233 6.41055 15.022 6.41485C15.0225 6.4134 15.023 6.4122 15.0233 6.41123ZM1.6424 6.40834C1.6425 6.40836 1.64335 6.41055 1.6447 6.41485C1.64298 6.41046 1.64231 6.40831 1.6424 6.40834ZM1.6424 6.78202C1.64231 6.78204 1.64298 6.7799 1.6447 6.77551C1.64335 6.7798 1.6425 6.782 1.6424 6.78202ZM15.0239 6.78061L15.022 6.77551L15.0238 6.78083L15.0243 6.78202C15.0243 6.78202 15.0243 6.78197 15.0242 6.78185L15.0239 6.78061Z" fill="#7D8BAE"/>
</svg>
