<svg width="20" height="19" viewBox="0 0 20 19" fill="none" xmlns="http://www.w3.org/2000/svg">
<path d="M5.5 0.499512C2.4624 0.499512 0 2.96152 0 5.99952C0 9.18353 1.8135 12.1875 4.8125 14.9375C5.8361 15.8755 6.9382 16.6985 8.0312 17.4375C8.4143 17.6955 8.7726 17.9295 9.0938 18.1245C9.2896 18.2435 9.4187 18.3295 9.5 18.3745C9.802 18.5426 10.198 18.5426 10.5 18.3745C10.5813 18.3295 10.7104 18.2435 10.9062 18.1245C11.2274 17.9295 11.5857 17.6955 11.9688 17.4375C13.0618 16.6985 14.1639 15.8755 15.1875 14.9375C18.1865 12.1875 20 9.18353 20 5.99952C20 2.96152 17.5376 0.499512 14.5 0.499512C12.7748 0.499512 11.0904 1.43953 10.0312 2.81153C8.9984 1.41553 7.3199 0.499512 5.5 0.499512ZM5.5 2.49952C6.7139 2.49952 7.8475 3.11553 8.5 4.06153C8.5634 4.15353 9.0633 4.88853 9.1562 5.03053C9.5431 5.62353 10.4063 5.64153 10.8125 5.06153C10.9113 4.92053 11.4316 4.18851 11.5 4.09351C12.1811 3.14151 13.3732 2.49952 14.5 2.49952C16.433 2.49952 18 4.06652 18 5.99952C18 8.50253 16.4385 11.0295 13.8125 13.4375C12.8673 14.3035 11.8601 15.0935 10.8438 15.7806C10.5365 15.9886 10.2624 16.1506 10 16.3116C9.7376 16.1506 9.4635 15.9886 9.1562 15.7806C8.1399 15.0935 7.1327 14.3035 6.1875 13.4375C3.5615 11.0295 2 8.50253 2 5.99952C2 4.06652 3.567 2.49952 5.5 2.49952Z" fill="#FF8F8F"/>
</svg>
