<svg width="4" height="16" viewBox="0 0 4 16" fill="current" xmlns="http://www.w3.org/2000/svg">
<path fill-rule="evenodd" clip-rule="evenodd" d="M2 12C3.10457 12 4 12.8954 4 14C4 15.1046 3.10457 16 2 16C0.895431 16 0 15.1046 0 14C0 12.8954 0.895431 12 2 12ZM2 6C3.10457 6 4 6.89543 4 8C4 9.10457 3.10457 10 2 10C0.895431 10 0 9.10457 0 8C0 6.89543 0.895431 6 2 6ZM4 2C4 0.895431 3.10457 0 2 0C0.895431 0 0 0.895431 0 2C0 3.10457 0.895431 4 2 4C3.10457 4 4 3.10457 4 2Z" fill="black"/>
<path fill-rule="evenodd" clip-rule="evenodd" d="M2 12C3.10457 12 4 12.8954 4 14C4 15.1046 3.10457 16 2 16C0.895431 16 0 15.1046 0 14C0 12.8954 0.895431 12 2 12ZM2 6C3.10457 6 4 6.89543 4 8C4 9.10457 3.10457 10 2 10C0.895431 10 0 9.10457 0 8C0 6.89543 0.895431 6 2 6ZM4 2C4 0.895431 3.10457 0 2 0C0.895431 0 0 0.895431 0 2C0 3.10457 0.895431 4 2 4C3.10457 4 4 3.10457 4 2Z" fill="#203EDF" fill-opacity="0.3"/>
<path fill-rule="evenodd" clip-rule="evenodd" d="M2 12C3.10457 12 4 12.8954 4 14C4 15.1046 3.10457 16 2 16C0.895431 16 0 15.1046 0 14C0 12.8954 0.895431 12 2 12ZM2 6C3.10457 6 4 6.89543 4 8C4 9.10457 3.10457 10 2 10C0.895431 10 0 9.10457 0 8C0 6.89543 0.895431 6 2 6ZM4 2C4 0.895431 3.10457 0 2 0C0.895431 0 0 0.895431 0 2C0 3.10457 0.895431 4 2 4C3.10457 4 4 3.10457 4 2Z" fill="white" fill-opacity="0.05"/>
</svg>
