<svg width="18" height="19" viewBox="0 0 18 19" fill="none" xmlns="http://www.w3.org/2000/svg">
<path fill-rule="evenodd" clip-rule="evenodd" d="M8 3.08062V12C8 12.5523 8.44771 13 9 13C9.55229 13 10 12.5523 10 12V3.08062L13.3753 5.78087C13.8066 6.12588 14.4359 6.05596 14.7809 5.62469C15.1259 5.19343 15.056 4.56414 14.6247 4.21913L9.93704 0.469009C9.87868 0.422319 9.8177 0.380603 9.75466 0.343861C9.57133 0.133177 9.30122 0 9 0C8.69878 0 8.42868 0.133177 8.24534 0.343861C8.1823 0.380603 8.12132 0.422319 8.06296 0.469009L3.3753 4.21913C2.94404 4.56414 2.87412 5.19343 3.21913 5.62469C3.56414 6.05596 4.19343 6.12588 4.62469 5.78087L8 3.08062ZM1 12C1.55228 12 2 12.4477 2 13V17H16V13C16 12.4477 16.4477 12 17 12C17.5523 12 18 12.4477 18 13V17.5C18 18.3284 17.3284 19 16.5 19H1.5C0.671573 19 0 18.3284 0 17.5V13C0 12.4477 0.447715 12 1 12Z" fill="black"/>
<path fill-rule="evenodd" clip-rule="evenodd" d="M8 3.08062V12C8 12.5523 8.44771 13 9 13C9.55229 13 10 12.5523 10 12V3.08062L13.3753 5.78087C13.8066 6.12588 14.4359 6.05596 14.7809 5.62469C15.1259 5.19343 15.056 4.56414 14.6247 4.21913L9.93704 0.469009C9.87868 0.422319 9.8177 0.380603 9.75466 0.343861C9.57133 0.133177 9.30122 0 9 0C8.69878 0 8.42868 0.133177 8.24534 0.343861C8.1823 0.380603 8.12132 0.422319 8.06296 0.469009L3.3753 4.21913C2.94404 4.56414 2.87412 5.19343 3.21913 5.62469C3.56414 6.05596 4.19343 6.12588 4.62469 5.78087L8 3.08062ZM1 12C1.55228 12 2 12.4477 2 13V17H16V13C16 12.4477 16.4477 12 17 12C17.5523 12 18 12.4477 18 13V17.5C18 18.3284 17.3284 19 16.5 19H1.5C0.671573 19 0 18.3284 0 17.5V13C0 12.4477 0.447715 12 1 12Z" fill="#203EDF" fill-opacity="0.3"/>
<path fill-rule="evenodd" clip-rule="evenodd" d="M8 3.08062V12C8 12.5523 8.44771 13 9 13C9.55229 13 10 12.5523 10 12V3.08062L13.3753 5.78087C13.8066 6.12588 14.4359 6.05596 14.7809 5.62469C15.1259 5.19343 15.056 4.56414 14.6247 4.21913L9.93704 0.469009C9.87868 0.422319 9.8177 0.380603 9.75466 0.343861C9.57133 0.133177 9.30122 0 9 0C8.69878 0 8.42868 0.133177 8.24534 0.343861C8.1823 0.380603 8.12132 0.422319 8.06296 0.469009L3.3753 4.21913C2.94404 4.56414 2.87412 5.19343 3.21913 5.62469C3.56414 6.05596 4.19343 6.12588 4.62469 5.78087L8 3.08062ZM1 12C1.55228 12 2 12.4477 2 13V17H16V13C16 12.4477 16.4477 12 17 12C17.5523 12 18 12.4477 18 13V17.5C18 18.3284 17.3284 19 16.5 19H1.5C0.671573 19 0 18.3284 0 17.5V13C0 12.4477 0.447715 12 1 12Z" fill="white" fill-opacity="0.05"/>
</svg>
