<svg width="36" height="36" viewBox="0 0 36 36" fill="none" xmlns="http://www.w3.org/2000/svg">
<g filter="url(#filter0_bd_1256_1984)">
<rect x="4" y="4" width="28" height="28" rx="4" fill="white" fill-opacity="0.2" shape-rendering="crispEdges"/>
<rect x="4.25" y="4.25" width="27.5" height="27.5" rx="3.75" stroke="white" stroke-width="0.5" shape-rendering="crispEdges"/>
</g>
<path d="M18.0008 28.95C17.7174 28.95 17.4801 28.8543 17.2888 28.663C17.0968 28.471 17.0008 28.2333 17.0008 27.95V26.95C14.9174 26.7167 13.1301 25.8543 11.6388 24.363C10.1468 22.871 9.28411 21.0833 9.05078 19H8.05078C7.76745 19 7.52978 18.904 7.33778 18.712C7.14645 18.5207 7.05078 18.2833 7.05078 18C7.05078 17.7167 7.14645 17.479 7.33778 17.287C7.52978 17.0957 7.76745 17 8.05078 17H9.05078C9.28411 14.9167 10.1468 13.129 11.6388 11.637C13.1301 10.1457 14.9174 9.28333 17.0008 9.05V8.05C17.0008 7.76667 17.0968 7.529 17.2888 7.337C17.4801 7.14567 17.7174 7.05 18.0008 7.05C18.2841 7.05 18.5218 7.14567 18.7138 7.337C18.9051 7.529 19.0008 7.76667 19.0008 8.05V9.05C21.0841 9.28333 22.8718 10.1457 24.3638 11.637C25.8551 13.129 26.7174 14.9167 26.9508 17H27.9508C28.2341 17 28.4718 17.0957 28.6638 17.287C28.8551 17.479 28.9508 17.7167 28.9508 18C28.9508 18.2833 28.8551 18.5207 28.6638 18.712C28.4718 18.904 28.2341 19 27.9508 19H26.9508C26.7174 21.0833 25.8551 22.871 24.3638 24.363C22.8718 25.8543 21.0841 26.7167 19.0008 26.95V27.95C19.0008 28.2333 18.9051 28.471 18.7138 28.663C18.5218 28.8543 18.2841 28.95 18.0008 28.95ZM18.0008 25C19.9341 25 21.5841 24.3167 22.9508 22.95C24.3174 21.5833 25.0008 19.9333 25.0008 18C25.0008 16.0667 24.3174 14.4167 22.9508 13.05C21.5841 11.6833 19.9341 11 18.0008 11C16.0674 11 14.4174 11.6833 13.0508 13.05C11.6841 14.4167 11.0008 16.0667 11.0008 18C11.0008 19.9333 11.6841 21.5833 13.0508 22.95C14.4174 24.3167 16.0674 25 18.0008 25ZM18.0008 22C16.9008 22 15.9591 21.6083 15.1758 20.825C14.3924 20.0417 14.0008 19.1 14.0008 18C14.0008 16.9 14.3924 15.9583 15.1758 15.175C15.9591 14.3917 16.9008 14 18.0008 14C19.1008 14 20.0424 14.3917 20.8258 15.175C21.6091 15.9583 22.0008 16.9 22.0008 18C22.0008 19.1 21.6091 20.0417 20.8258 20.825C20.0424 21.6083 19.1008 22 18.0008 22Z" fill="#24264E"/>
<defs>
<filter id="filter0_bd_1256_1984" x="0" y="0" width="36" height="36" filterUnits="userSpaceOnUse" color-interpolation-filters="sRGB">
<feFlood flood-opacity="0" result="BackgroundImageFix"/>
<feGaussianBlur in="BackgroundImageFix" stdDeviation="1"/>
<feComposite in2="SourceAlpha" operator="in" result="effect1_backgroundBlur_1256_1984"/>
<feColorMatrix in="SourceAlpha" type="matrix" values="0 0 0 0 0 0 0 0 0 0 0 0 0 0 0 0 0 0 127 0" result="hardAlpha"/>
<feOffset/>
<feGaussianBlur stdDeviation="2"/>
<feComposite in2="hardAlpha" operator="out"/>
<feColorMatrix type="matrix" values="0 0 0 0 0.745098 0 0 0 0 0.772549 0 0 0 0 0.843137 0 0 0 1 0"/>
<feBlend mode="normal" in2="effect1_backgroundBlur_1256_1984" result="effect2_dropShadow_1256_1984"/>
<feBlend mode="normal" in="SourceGraphic" in2="effect2_dropShadow_1256_1984" result="shape"/>
</filter>
</defs>
</svg>
