<svg width="40" height="41" viewBox="0 0 40 41" fill="none" xmlns="http://www.w3.org/2000/svg">
<path d="M28.0682 30.1871L21.7045 23.8144C21.1364 24.2696 20.483 24.6299 19.7443 24.8954C19.0057 25.161 18.2197 25.2937 17.3864 25.2937C15.322 25.2937 13.575 24.578 12.1455 23.1464C10.7152 21.714 10 19.9642 10 17.8969C10 15.8295 10.7152 14.0797 12.1455 12.6474C13.575 11.2158 15.322 10.5 17.3864 10.5C19.4508 10.5 21.1981 11.2158 22.6284 12.6474C24.058 14.0797 24.7727 15.8295 24.7727 17.8969C24.7727 18.7314 24.6402 19.5185 24.375 20.2582C24.1098 20.9979 23.75 21.6522 23.2955 22.2212L29.6875 28.6223C29.8958 28.831 30 29.087 30 29.3905C30 29.6939 29.8864 29.9595 29.6591 30.1871C29.4508 30.3957 29.1856 30.5 28.8636 30.5C28.5417 30.5 28.2765 30.3957 28.0682 30.1871ZM17.3864 23.0178C18.8068 23.0178 20.0144 22.5201 21.0091 21.5247C22.003 20.5286 22.5 19.3193 22.5 17.8969C22.5 16.4744 22.003 15.2651 21.0091 14.269C20.0144 13.2736 18.8068 12.776 17.3864 12.776C15.9659 12.776 14.7583 13.2736 13.7636 14.269C12.7697 15.2651 12.2727 16.4744 12.2727 17.8969C12.2727 19.3193 12.7697 20.5286 13.7636 21.5247C14.7583 22.5201 15.9659 23.0178 17.3864 23.0178Z" fill="#24264E"/>
</svg>
