<svg width="1024" height="293" viewBox="0 0 1024 293" fill="none" xmlns="http://www.w3.org/2000/svg">
<rect width="1024" height="293" fill="#D1DDF5"/>
<rect x="964" y="235" width="48" height="48" rx="24" fill="#EEF1F7"/>
<path fill-rule="evenodd" clip-rule="evenodd" d="M990.228 252.625L992.514 250.216L996.692 254.395L994.424 256.761L990.228 252.625ZM988.622 254.318L980.593 262.78C980.444 262.937 980.35 263.138 980.325 263.352L979.818 267.669L983.996 267.289C984.236 267.267 984.46 267.159 984.627 266.985L992.81 258.446L988.622 254.318ZM993.74 248.143C993.044 247.447 991.911 247.461 991.233 248.176L978.537 261.556C978.277 261.831 978.113 262.182 978.069 262.557L977.417 268.111C977.287 269.215 978.207 270.158 979.313 270.058L984.797 269.559C985.217 269.521 985.61 269.332 985.902 269.027L998.772 255.597C999.431 254.91 999.419 253.822 998.746 253.149L993.74 248.143Z" fill="#7D8BAE"/>
</svg>
