<svg width="1024" height="293" viewBox="0 0 1024 293" fill="none" xmlns="http://www.w3.org/2000/svg">
<rect width="1024" height="293" fill="#D1DDF5"/>
<path d="M512.333 148.333C517.856 148.333 522.333 143.856 522.333 138.333C522.333 132.81 517.856 128.333 512.333 128.333C506.81 128.333 502.333 132.81 502.333 138.333C502.333 143.856 506.81 148.333 512.333 148.333Z" fill="#EEF1F7"/>
<path d="M539 111.667H528.433L524.3 107.167C523.679 106.485 522.922 105.94 522.078 105.567C521.235 105.194 520.323 105.001 519.4 105H505.267C503.4 105 501.6 105.8 500.333 107.167L496.233 111.667H485.667C482 111.667 479 114.667 479 118.333V158.333C479 162 482 165 485.667 165H539C542.667 165 545.667 162 545.667 158.333V118.333C545.667 114.667 542.667 111.667 539 111.667ZM512.333 155C503.133 155 495.667 147.533 495.667 138.333C495.667 129.133 503.133 121.667 512.333 121.667C521.533 121.667 529 129.133 529 138.333C529 147.533 521.533 155 512.333 155Z" fill="#EEF1F7"/>
<path d="M480.252 176.024V177.968C480.252 179.948 479.016 182.036 477.444 182.828L478.056 183.62C479.772 182.708 481.068 180.368 481.068 177.968V176.024H480.252ZM480.432 176.024V177.968C480.432 180.296 481.692 182.516 483.372 183.416L483.984 182.624C482.448 181.856 481.236 179.876 481.236 177.968V176.024H480.432ZM484.932 175.088V185.936H485.94V175.088H484.932ZM485.7 179.48V180.32H487.716V179.48H485.7ZM491.519 176.276V177.38C491.519 178.928 490.415 180.332 488.783 180.908L489.299 181.7C491.123 181.04 492.347 179.372 492.347 177.38V176.276H491.519ZM491.711 176.276V177.38C491.711 179.288 492.959 180.872 494.759 181.484L495.275 180.704C493.667 180.164 492.539 178.844 492.539 177.38V176.276H491.711ZM489.047 175.988V176.792H494.987V175.988H489.047ZM496.523 175.1V183.032H497.531V175.1H496.523ZM490.559 184.88V185.696H497.855V184.88H490.559ZM490.559 182.288V185.24H491.543V182.288H490.559ZM508.609 177.644V178.472H511.345V177.644H508.609ZM505.765 175.748V177.08C505.765 178.736 504.673 180.272 503.065 180.872L503.581 181.664C505.393 180.932 506.569 179.18 506.569 177.08V175.748H505.765ZM505.957 175.748V177.116C505.957 179.048 507.121 180.728 508.849 181.4L509.389 180.632C507.817 180.056 506.761 178.628 506.761 177.116V175.748H505.957ZM510.973 175.1V183.212H511.969V175.1H510.973ZM504.997 184.88V185.696H512.233V184.88H504.997ZM504.997 182.312V185.264H505.993V182.312H504.997ZM514.548 180.272V181.1H515.244C516.984 181.1 518.016 181.052 519.264 180.812L519.168 179.996C517.956 180.236 516.948 180.272 515.244 180.272H514.548ZM514.548 175.88V180.716H515.508V176.696H518.748V175.88H514.548ZM515.208 178.04V178.82H518.616V178.04H515.208ZM522.276 175.088V181.664H523.224V175.088H522.276ZM520.524 177.92V178.736H522.576V177.92H520.524ZM519.888 175.292V181.604H520.824V175.292H519.888ZM515.952 182.24V183.056H522.24V185.936H523.224V182.24H515.952ZM532.475 175.088V185.936H533.471V175.088H532.475ZM533.231 179.54V180.38H535.247V179.54H533.231ZM525.071 176.816V177.632H531.467V176.816H525.071ZM528.311 178.532C526.787 178.532 525.671 179.564 525.671 181.028C525.671 182.492 526.787 183.524 528.311 183.524C529.847 183.524 530.951 182.492 530.951 181.028C530.951 179.564 529.847 178.532 528.311 178.532ZM528.311 179.36C529.295 179.36 530.003 180.044 530.003 181.028C530.003 182 529.295 182.696 528.311 182.696C527.327 182.696 526.619 182 526.619 181.028C526.619 180.044 527.327 179.36 528.311 179.36ZM527.795 175.22V177.188H528.791V175.22H527.795ZM544.066 175.088V185.936H545.062V175.088H544.066ZM540.886 176.252V176.42C540.886 179.3 539.434 181.604 536.302 183.116L536.83 183.92C540.454 182.144 541.87 179.396 541.87 176.252H540.886ZM536.794 176.252V177.068H541.318V176.252H536.794Z" fill="#24264E"/>
</svg>
