<svg width="13" height="13" viewBox="0 0 13 13" fill="none" xmlns="http://www.w3.org/2000/svg">
<path d="M6.50781 0.249023C3.05593 0.249023 0.257812 3.04714 0.257812 6.49901C0.257812 9.95088 3.05593 12.749 6.50781 12.749C9.6828 12.749 12.3478 10.369 12.7191 7.24151C12.7591 6.89838 12.5147 6.57902 12.1715 6.53777C11.829 6.49777 11.5091 6.74213 11.4691 7.08526C11.1722 9.58525 9.0478 11.499 6.50781 11.499C3.74656 11.499 1.50781 9.26026 1.50781 6.49901C1.50781 3.73777 3.74656 1.49902 6.50781 1.49902C7.08468 1.49902 7.65593 1.60339 8.18781 1.79214C8.51281 1.90714 8.85343 1.72652 8.96906 1.40152C9.08406 1.07589 8.9228 0.715905 8.5978 0.60028C7.9328 0.364656 7.22718 0.249023 6.50781 0.249023ZM12.1328 1.49902C11.9728 1.49902 11.8053 1.55528 11.6834 1.67465L6.23405 7.04589C6.07343 7.20401 5.91155 7.17339 5.7853 6.98714L5.1603 6.06902C4.96905 5.78715 4.56781 5.70527 4.28156 5.89339C3.99469 6.08152 3.91406 6.47089 4.10531 6.75277L4.73031 7.67089C5.29344 8.50151 6.3953 8.61151 7.11343 7.90526L12.5822 2.55401C12.8259 2.31401 12.8259 1.91465 12.5822 1.67465C12.4603 1.55465 12.2928 1.49902 12.1328 1.49902Z" fill="#7D8BAE"/>
</svg>
