<svg width="13" height="13" viewBox="0 0 13 13" fill="none" xmlns="http://www.w3.org/2000/svg">
<path d="M0 6.5C0 2.91005 2.91018 0 6.5 0C10.0898 0 13 2.91005 13 6.5C13 10.0899 10.0898 13 6.5 13C2.91018 13 0 10.0899 0 6.5Z" fill="#7D8BAE"/>
<path d="M3.44196 3C3.33017 3 3.21327 3.0376 3.12795 3.12285C2.95735 3.29379 2.95735 3.58058 3.12795 3.75152L5.87201 6.49749L3.12795 9.24346C2.95735 9.41439 2.95735 9.70118 3.12795 9.87212C3.29858 10.0426 3.58534 10.0426 3.75598 9.87212L6.5 7.12616L9.24402 9.87212C9.41466 10.0426 9.70142 10.0426 9.87205 9.87212C10.0426 9.70118 10.0426 9.41439 9.87205 9.24346L7.12799 6.49749L9.87205 3.75152C10.0426 3.58058 10.0426 3.29379 9.87205 3.12285C9.78673 3.0376 9.66979 3 9.55804 3C9.44624 3 9.32938 3.0376 9.24402 3.12285L6.5 5.86881L3.75598 3.12285C3.67066 3.0376 3.55376 3 3.44196 3Z" fill="white"/>
</svg>
