<svg width="167" height="166" viewBox="0 0 167 166" fill="none" xmlns="http://www.w3.org/2000/svg">
<g filter="url(#filter0_d_1483_2162)">
<rect x="4" width="159" height="158" rx="4" fill="#7D8BAE" fill-opacity="0.5"/>
</g>
<path d="M52.252 117.024V118.968C52.252 120.948 51.016 123.036 49.444 123.828L50.056 124.62C51.772 123.708 53.068 121.368 53.068 118.968V117.024H52.252ZM52.432 117.024V118.968C52.432 121.296 53.692 123.516 55.372 124.416L55.984 123.624C54.448 122.856 53.236 120.876 53.236 118.968V117.024H52.432ZM56.932 116.088V126.936H57.94V116.088H56.932ZM57.7 120.48V121.32H59.716V120.48H57.7ZM63.5191 117.276V118.38C63.5191 119.928 62.4151 121.332 60.7831 121.908L61.2991 122.7C63.1231 122.04 64.3471 120.372 64.3471 118.38V117.276H63.5191ZM63.7111 117.276V118.38C63.7111 120.288 64.9591 121.872 66.7591 122.484L67.2751 121.704C65.6671 121.164 64.5391 119.844 64.5391 118.38V117.276H63.7111ZM61.0471 116.988V117.792H66.9871V116.988H61.0471ZM68.5231 116.1V124.032H69.5311V116.1H68.5231ZM62.5591 125.88V126.696H69.8551V125.88H62.5591ZM62.5591 123.288V126.24H63.5431V123.288H62.5591ZM80.6091 118.644V119.472H83.3451V118.644H80.6091ZM77.7651 116.748V118.08C77.7651 119.736 76.6731 121.272 75.0651 121.872L75.5811 122.664C77.3931 121.932 78.5691 120.18 78.5691 118.08V116.748H77.7651ZM77.9571 116.748V118.116C77.9571 120.048 79.1211 121.728 80.8491 122.4L81.3891 121.632C79.8171 121.056 78.7611 119.628 78.7611 118.116V116.748H77.9571ZM82.9731 116.1V124.212H83.9691V116.1H82.9731ZM76.9971 125.88V126.696H84.2331V125.88H76.9971ZM76.9971 123.312V126.264H77.9931V123.312H76.9971ZM86.5482 121.272V122.1H87.2442C88.9842 122.1 90.0162 122.052 91.2642 121.812L91.1682 120.996C89.9562 121.236 88.9482 121.272 87.2442 121.272H86.5482ZM86.5482 116.88V121.716H87.5082V117.696H90.7482V116.88H86.5482ZM87.2082 119.04V119.82H90.6162V119.04H87.2082ZM94.2762 116.088V122.664H95.2242V116.088H94.2762ZM92.5242 118.92V119.736H94.5762V118.92H92.5242ZM91.8882 116.292V122.604H92.8242V116.292H91.8882ZM87.9522 123.24V124.056H94.2402V126.936H95.2242V123.24H87.9522ZM104.475 116.088V126.936H105.471V116.088H104.475ZM105.231 120.54V121.38H107.247V120.54H105.231ZM97.0713 117.816V118.632H103.467V117.816H97.0713ZM100.311 119.532C98.7873 119.532 97.6713 120.564 97.6713 122.028C97.6713 123.492 98.7873 124.524 100.311 124.524C101.847 124.524 102.951 123.492 102.951 122.028C102.951 120.564 101.847 119.532 100.311 119.532ZM100.311 120.36C101.295 120.36 102.003 121.044 102.003 122.028C102.003 123 101.295 123.696 100.311 123.696C99.3273 123.696 98.6193 123 98.6193 122.028C98.6193 121.044 99.3273 120.36 100.311 120.36ZM99.7953 116.22V118.188H100.791V116.22H99.7953ZM116.066 116.088V126.936H117.062V116.088H116.066ZM112.886 117.252V117.42C112.886 120.3 111.434 122.604 108.302 124.116L108.83 124.92C112.454 123.144 113.87 120.396 113.87 117.252H112.886ZM108.794 117.252V118.068H113.318V117.252H108.794Z" fill="#24264E"/>
<path d="M84 87C89.5228 87 94 82.5228 94 77C94 71.4772 89.5228 67 84 67C78.4772 67 74 71.4772 74 77C74 82.5228 78.4772 87 84 87Z" fill="#EEF1F7"/>
<path d="M110.667 50.3337H100.1L95.9665 45.8337C95.3453 45.1516 94.5887 44.6067 93.745 44.2336C92.9013 43.8605 91.989 43.6676 91.0665 43.667H76.9332C75.0665 43.667 73.2665 44.467 71.9998 45.8337L67.8998 50.3337H57.3332C53.6665 50.3337 50.6665 53.3337 50.6665 57.0003V97.0003C50.6665 100.667 53.6665 103.667 57.3332 103.667H110.667C114.333 103.667 117.333 100.667 117.333 97.0003V57.0003C117.333 53.3337 114.333 50.3337 110.667 50.3337ZM83.9998 93.667C74.7998 93.667 67.3332 86.2003 67.3332 77.0003C67.3332 67.8003 74.7998 60.3337 83.9998 60.3337C93.1998 60.3337 100.667 67.8003 100.667 77.0003C100.667 86.2003 93.1998 93.667 83.9998 93.667Z" fill="#EEF1F7"/>
<defs>
<filter id="filter0_d_1483_2162" x="0" y="0" width="167" height="166" filterUnits="userSpaceOnUse" color-interpolation-filters="sRGB">
<feFlood flood-opacity="0" result="BackgroundImageFix"/>
<feColorMatrix in="SourceAlpha" type="matrix" values="0 0 0 0 0 0 0 0 0 0 0 0 0 0 0 0 0 0 127 0" result="hardAlpha"/>
<feOffset dy="4"/>
<feGaussianBlur stdDeviation="2"/>
<feComposite in2="hardAlpha" operator="out"/>
<feColorMatrix type="matrix" values="0 0 0 0 0.745098 0 0 0 0 0.772549 0 0 0 0 0.843137 0 0 0 0.3 0"/>
<feBlend mode="normal" in2="BackgroundImageFix" result="effect1_dropShadow_1483_2162"/>
<feBlend mode="normal" in="SourceGraphic" in2="effect1_dropShadow_1483_2162" result="shape"/>
</filter>
</defs>
</svg>
