<svg width="10" height="10" viewBox="0 0 10 10" fill="none" xmlns="http://www.w3.org/2000/svg">
<path d="M0.631375 0C0.471671 0 0.304665 0.0537151 0.18278 0.175503C-0.0609267 0.419702 -0.0609267 0.829401 0.18278 1.0736L4.10287 4.99641L0.18278 8.91922C-0.0609267 9.16342 -0.0609267 9.57312 0.18278 9.81732C0.426549 10.0609 0.836201 10.0609 1.07997 9.81732L5 5.89452L8.92003 9.81732C9.1638 10.0609 9.57345 10.0609 9.81722 9.81732C10.0609 9.57312 10.0609 9.16342 9.81722 8.91922L5.89713 4.99641L9.81722 1.0736C10.0609 0.829401 10.0609 0.419702 9.81722 0.175503C9.69534 0.0537151 9.52827 0 9.36862 0C9.20892 0 9.04198 0.0537151 8.92003 0.175503L5 4.0983L1.07997 0.175503C0.958086 0.0537151 0.79108 0 0.631375 0Z" fill="#24264E"/>
</svg>
