<svg width="291" height="384" viewBox="0 0 291 384" fill="none" xmlns="http://www.w3.org/2000/svg">
<path d="M0 0V-1H-1V0H0ZM291 0H292V-1H291V0ZM0 1H291V-1H0V1ZM290 0V64H292V0H290ZM1 64V0H-1V64H1Z" fill="#BEC5D7" mask="url(#path-1-inside-1_1481_1882)"/>
<path d="M0 64V63H-1V64H0ZM291 64H292V63H291V64ZM0 65H291V63H0V65ZM290 64V128H292V64H290ZM1 128V64H-1V128H1Z" fill="#BEC5D7" mask="url(#path-3-inside-2_1481_1882)"/>
<path d="M0 128V127H-1V128H0ZM291 128H292V127H291V128ZM0 129H291V127H0V129ZM290 128V192H292V128H290ZM1 192V128H-1V192H1Z" fill="#BEC5D7" mask="url(#path-5-inside-3_1481_1882)"/>
<path d="M0 192V191H-1V192H0ZM291 192H292V191H291V192ZM0 193H291V191H0V193ZM290 192V256H292V192H290ZM1 256V192H-1V256H1Z" fill="#BEC5D7" mask="url(#path-7-inside-4_1481_1882)"/>
<path d="M0 256V255H-1V256H0ZM291 256H292V255H291V256ZM0 257H291V255H0V257ZM290 256V320H292V256H290ZM1 320V256H-1V320H1Z" fill="#BEC5D7" mask="url(#path-9-inside-5_1481_1882)"/>
<path d="M0 320V319H-1V320H0ZM291 320H292V319H291V320ZM291 384V385H292V384H291ZM0 384H-1V385H0V384ZM0 321H291V319H0V321ZM290 320V384H292V320H290ZM291 383H0V385H291V383ZM1 384V320H-1V384H1Z" fill="#BEC5D7" mask="url(#path-11-inside-6_1481_1882)"/>
</svg>
