<svg width="24" height="24" viewBox="0 0 24 24" fill="none" xmlns="http://www.w3.org/2000/svg">
<rect width="24" height="24" rx="4" fill="#BEC5D7"/>
<path d="M12.0008 22.95C11.7174 22.95 11.4801 22.8543 11.2888 22.663C11.0968 22.471 11.0008 22.2333 11.0008 21.95V20.95C8.91745 20.7167 7.13012 19.8543 5.63878 18.363C4.14678 16.871 3.28411 15.0833 3.05078 13H2.05078C1.76745 13 1.52978 12.904 1.33778 12.712C1.14645 12.5207 1.05078 12.2833 1.05078 12C1.05078 11.7167 1.14645 11.479 1.33778 11.287C1.52978 11.0957 1.76745 11 2.05078 11H3.05078C3.28411 8.91667 4.14678 7.129 5.63878 5.637C7.13012 4.14567 8.91745 3.28333 11.0008 3.05V2.05C11.0008 1.76667 11.0968 1.529 11.2888 1.337C11.4801 1.14567 11.7174 1.05 12.0008 1.05C12.2841 1.05 12.5218 1.14567 12.7138 1.337C12.9051 1.529 13.0008 1.76667 13.0008 2.05V3.05C15.0841 3.28333 16.8718 4.14567 18.3638 5.637C19.8551 7.129 20.7174 8.91667 20.9508 11H21.9508C22.2341 11 22.4718 11.0957 22.6638 11.287C22.8551 11.479 22.9508 11.7167 22.9508 12C22.9508 12.2833 22.8551 12.5207 22.6638 12.712C22.4718 12.904 22.2341 13 21.9508 13H20.9508C20.7174 15.0833 19.8551 16.871 18.3638 18.363C16.8718 19.8543 15.0841 20.7167 13.0008 20.95V21.95C13.0008 22.2333 12.9051 22.471 12.7138 22.663C12.5218 22.8543 12.2841 22.95 12.0008 22.95ZM12.0008 19C13.9341 19 15.5841 18.3167 16.9508 16.95C18.3174 15.5833 19.0008 13.9333 19.0008 12C19.0008 10.0667 18.3174 8.41667 16.9508 7.05C15.5841 5.68333 13.9341 5 12.0008 5C10.0674 5 8.41745 5.68333 7.05078 7.05C5.68411 8.41667 5.00078 10.0667 5.00078 12C5.00078 13.9333 5.68411 15.5833 7.05078 16.95C8.41745 18.3167 10.0674 19 12.0008 19ZM12.0008 16C10.9008 16 9.95912 15.6083 9.17578 14.825C8.39245 14.0417 8.00078 13.1 8.00078 12C8.00078 10.9 8.39245 9.95833 9.17578 9.175C9.95912 8.39167 10.9008 8 12.0008 8C13.1008 8 14.0424 8.39167 14.8258 9.175C15.6091 9.95833 16.0008 10.9 16.0008 12C16.0008 13.1 15.6091 14.0417 14.8258 14.825C14.0424 15.6083 13.1008 16 12.0008 16Z" fill="#24264E"/>
</svg>
