<svg width="24" height="24" viewBox="0 0 24 24" fill="none" xmlns="http://www.w3.org/2000/svg">
<rect width="24" height="24" rx="4" fill="#BEC5D7"/>
<path d="M10.416 1.95312C5.76825 1.95312 2 5.72137 2 10.3691C2 15.0168 5.76825 18.785 10.416 18.785C12.3485 18.785 14.1569 18.1044 15.5771 17.0093L20.1795 21.6454C20.5909 22.0557 21.281 22.0557 21.6923 21.6454C22.1026 21.2341 22.1026 20.544 21.6923 20.1327L17.0562 15.5302C18.1513 14.11 18.8319 12.3016 18.8319 10.3691C18.8319 5.72137 15.0637 1.95312 10.416 1.95312ZM13.5719 9.31709C14.1526 9.31709 14.6239 9.78838 14.6239 10.3691C14.6239 10.9498 14.1526 11.4211 13.5719 11.4211H7.25998C6.67927 11.4211 6.20798 10.9498 6.20798 10.3691C6.20798 9.78838 6.67927 9.31709 7.25998 9.31709H13.5719Z" fill="#24264E"/>
</svg>
