<svg width="24" height="20" viewBox="0 0 24 20" fill="none" xmlns="http://www.w3.org/2000/svg">
<path d="M9.5 18.75C9.14584 18.75 8.84875 18.6304 8.60875 18.3913C8.36875 18.1521 8.24917 17.855 8.25 17.5C8.25 17.1458 8.37 16.8492 8.61 16.61C8.85 16.3708 9.14667 16.2508 9.5 16.25H22C22.3542 16.25 22.6513 16.37 22.8913 16.61C23.1313 16.85 23.2508 17.1467 23.25 17.5C23.25 17.8542 23.13 18.1513 22.89 18.3913C22.65 18.6313 22.3533 18.7508 22 18.75H9.5ZM9.5 11.25C9.14584 11.25 8.84875 11.1304 8.60875 10.8913C8.36875 10.6521 8.24917 10.355 8.25 10C8.25 9.64583 8.37 9.34875 8.61 9.10875C8.85 8.86875 9.14667 8.74917 9.5 8.75H22C22.3542 8.75 22.6513 8.87 22.8913 9.11C23.1313 9.35 23.2508 9.64667 23.25 10C23.25 10.3542 23.13 10.6513 22.89 10.8913C22.65 11.1313 22.3533 11.2508 22 11.25H9.5ZM9.5 3.75C9.14584 3.75 8.84875 3.63042 8.60875 3.39125C8.36875 3.15209 8.24917 2.855 8.25 2.5C8.25 2.14583 8.37 1.84875 8.61 1.60875C8.85 1.36875 9.14667 1.24917 9.5 1.25H22C22.3542 1.25 22.6513 1.37 22.8913 1.61C23.1313 1.85 23.2508 2.14667 23.25 2.5C23.25 2.85417 23.13 3.15125 22.89 3.39125C22.65 3.63125 22.3533 3.75083 22 3.75H9.5ZM3.25 20C2.5625 20 1.97375 19.7554 1.48375 19.2663C0.993752 18.7771 0.749169 18.1883 0.750002 17.5C0.750002 16.8125 0.995002 16.2242 1.485 15.735C1.975 15.2458 2.56334 15.0008 3.25 15C3.9375 15 4.52625 15.245 5.01625 15.735C5.50625 16.225 5.75084 16.8133 5.75 17.5C5.75 18.1875 5.505 18.7763 5.015 19.2663C4.525 19.7563 3.93667 20.0008 3.25 20ZM3.25 12.5C2.5625 12.5 1.97375 12.2554 1.48375 11.7663C0.993752 11.2771 0.749169 10.6883 0.750002 10C0.750002 9.3125 0.995002 8.72375 1.485 8.23375C1.975 7.74375 2.56334 7.49917 3.25 7.5C3.9375 7.5 4.52625 7.745 5.01625 8.235C5.50625 8.725 5.75084 9.31333 5.75 10C5.75 10.6875 5.505 11.2763 5.015 11.7663C4.525 12.2563 3.93667 12.5008 3.25 12.5ZM3.25 5C2.5625 5 1.97375 4.75542 1.48375 4.26625C0.993752 3.77708 0.749169 3.18833 0.750002 2.5C0.750002 1.8125 0.995002 1.22375 1.485 0.733752C1.975 0.243752 2.56334 -0.000831211 3.25 2.12224e-06C3.9375 2.12224e-06 4.52625 0.245002 5.01625 0.735002C5.50625 1.225 5.75084 1.81333 5.75 2.5C5.75 3.1875 5.505 3.77625 5.015 4.26625C4.525 4.75625 3.93667 5.00084 3.25 5Z" fill="white"/>
</svg>
