<svg width="20" height="21" viewBox="0 0 20 21" fill="none" xmlns="http://www.w3.org/2000/svg">
<path d="M10 0.0527344C4.4772 0.0527344 0 4.61551 0 10.2443C0 15.8732 4.4772 20.4359 10 20.4359C15.5228 20.4359 20 15.8732 20 10.2443C20 4.61551 15.5228 0.0527344 10 0.0527344ZM10 2.09105C14.4183 2.09105 18 5.74168 18 10.2443C18 14.747 14.4183 18.3976 10 18.3976C5.5817 18.3976 2 14.747 2 10.2443C2 5.74168 5.5817 2.09105 10 2.09105ZM10 5.14853C9.4477 5.14853 9 5.60512 9 6.16769C9 6.73027 9.4477 7.18685 10 7.18685C10.5523 7.18685 11 6.73027 11 6.16769C11 5.60512 10.5523 5.14853 10 5.14853ZM10 8.20601C9.4477 8.20601 9 8.6626 9 9.22517V14.321C9 14.8835 9.4477 15.3401 10 15.3401C10.5523 15.3401 11 14.8835 11 14.321V9.22517C11 8.6626 10.5523 8.20601 10 8.20601Z" fill="#7D8BAE"/>
</svg>
