<svg width="22" height="22" viewBox="0 0 22 22" fill="none" xmlns="http://www.w3.org/2000/svg">
<circle cx="10.6667" cy="10.6667" r="10.6667" fill="#EEF1F7"/>
<path fill-rule="evenodd" clip-rule="evenodd" d="M11 11.037C12.9373 11.037 14.5077 9.46174 14.5077 7.51852C14.5077 5.57529 12.9373 4 11 4C9.06274 4 7.49228 5.57529 7.49228 7.51852C7.49228 9.46174 9.06274 11.037 11 11.037ZM11 11.037C10.1708 11.037 9.34981 11.1827 8.58377 11.4656C7.81774 11.7485 7.1217 12.1632 6.5354 12.6859C5.9491 13.2087 5.48402 13.8293 5.16672 14.5123C5.15067 14.5468 5.13501 14.5815 5.11975 14.6163C4.65167 15.6835 5.62838 16.6667 6.79073 16.6667H15.2093C16.3716 16.6667 17.3483 15.6835 16.8802 14.6163C16.865 14.5815 16.8493 14.5468 16.8333 14.5123C16.516 13.8293 16.0509 13.2087 15.4646 12.6859C14.8783 12.1632 14.1823 11.7485 13.4162 11.4656C12.6502 11.1827 11.8292 11.037 11 11.037Z" fill="#7D8BAE"/>
</svg>
