<svg width="10" height="10" viewBox="0 0 10 10" fill="none" xmlns="http://www.w3.org/2000/svg">
<path d="M5 0C2.2385 0 0 2.2385 0 5C0 5.636 0.130997 6.2805 0.359497 6.8595L0.75 7.656C0.9975 8.1705 0.910503 8.6555 0.578003 9.25C0.394503 9.579 0.6235 9.9755 1 9.9845C1.5085 9.996 2.3535 9.834 3 9.594C3.597 9.8695 4.334 10 5 10C7.7615 10 10 7.7615 10 5C10 2.2385 7.7615 0 5 0ZM5 1C7.209 1 9 2.791 9 5C9 7.209 7.209 9 5 9C4.425 9 3.7025 8.852 3.25 8.6095C3.116 8.5375 2.952 8.5185 2.8125 8.578C2.4935 8.7145 2.1715 8.817 1.797 8.8905C1.947 8.365 1.9025 7.7635 1.6405 7.219L1.2655 6.453C1.099 6.027 1 5.51 1 5C1 2.791 2.791 1 5 1ZM3 4.5C2.724 4.5 2.5 4.724 2.5 5C2.5 5.276 2.724 5.5 3 5.5C3.276 5.5 3.5 5.276 3.5 5C3.5 4.724 3.276 4.5 3 4.5ZM5 4.5C4.724 4.5 4.5 4.724 4.5 5C4.5 5.276 4.724 5.5 5 5.5C5.276 5.5 5.5 5.276 5.5 5C5.5 4.724 5.276 4.5 5 4.5ZM7 4.5C6.724 4.5 6.5 4.724 6.5 5C6.5 5.276 6.724 5.5 7 5.5C7.276 5.5 7.5 5.276 7.5 5C7.5 4.724 7.276 4.5 7 4.5Z" fill="#7D8BAE"/>
</svg>
