<svg width="24" height="24" viewBox="0 0 24 24" fill="none" xmlns="http://www.w3.org/2000/svg">
<path d="M11.9909 1.99902C8.43863 1.99902 5.99093 4.44703 5.99093 7.99904C5.99093 8.48404 5.99093 9.96905 5.99093 9.99905C5.99093 10.321 5.82833 10.54 5.27213 10.9991C5.20903 11.0511 4.94453 11.278 4.86593 11.343C3.60053 12.389 2.97773 13.3691 2.99093 14.9991C3.00423 16.6471 4.34763 17.9801 5.99093 17.9991H9.16693C9.16693 17.9991 8.99093 18.6101 8.99093 18.9991C8.99093 20.6561 10.3339 21.9991 11.9909 21.9991C13.6479 21.9991 14.9909 20.6561 14.9909 18.9991C14.9909 18.6101 14.8229 17.9991 14.8229 17.9991H17.9909C19.6309 18.0051 20.9929 16.6541 20.9909 14.9991C20.9889 13.3811 20.3649 12.384 19.1159 11.343C19.0339 11.274 18.7439 11.0531 18.6779 10.9991C18.1339 10.545 17.9909 10.317 17.9909 9.99905C17.9909 8.74904 17.9909 7.99904 17.9909 7.99904C17.9909 4.44703 15.5429 1.99902 11.9909 1.99902ZM11.9909 3.99903C14.4389 3.99903 15.9909 5.55103 15.9909 7.99904C15.9909 7.99904 15.9909 8.74904 15.9909 9.99905C15.9909 11.0611 16.4389 11.7311 17.3969 12.5301C17.4729 12.5931 17.7939 12.8451 17.8659 12.9051C18.7039 13.6041 18.9899 14.0771 18.9909 14.9991C18.9919 15.5431 18.5259 16.0011 17.9909 15.9991C17.8019 15.9981 14.8909 15.9981 11.9909 15.9991C9.09123 16.0001 6.20343 16.0011 5.99093 15.9991C5.43273 15.9921 4.99543 15.5541 4.99093 14.9991C4.98353 14.0791 5.26943 13.6051 6.11593 12.9051C6.18503 12.8481 6.48073 12.5901 6.55343 12.5301C7.52663 11.7261 7.99093 11.0711 7.99093 9.99905C7.99093 9.96905 7.99093 8.48404 7.99093 7.99904C7.99093 5.55103 9.54323 3.99903 11.9909 3.99903ZM11.9909 17.9991C12.5429 17.9991 12.9909 18.4471 12.9909 18.9991C12.9909 19.5511 12.5429 19.9991 11.9909 19.9991C11.4389 19.9991 10.9909 19.5511 10.9909 18.9991C10.9909 18.4471 11.4389 17.9991 11.9909 17.9991Z" fill="#24264E"/>
</svg>
