<svg width="68" height="61" viewBox="0 0 68 61" fill="none" xmlns="http://www.w3.org/2000/svg">
<path d="M34 44C39.5228 44 44 39.5228 44 34C44 28.4772 39.5228 24 34 24C28.4772 24 24 28.4772 24 34C24 39.5228 28.4772 44 34 44Z" fill="#BEC5D7"/>
<path d="M60.668 7.33366H50.1013L45.968 2.83366C45.3468 2.15164 44.5902 1.60668 43.7465 1.23361C42.9027 0.860543 41.9905 0.66756 41.068 0.666992H26.9346C25.068 0.666992 23.268 1.46699 22.0013 2.83366L17.9013 7.33366H7.33464C3.66797 7.33366 0.667969 10.3337 0.667969 14.0003V54.0003C0.667969 57.667 3.66797 60.667 7.33464 60.667H60.668C64.3346 60.667 67.3346 57.667 67.3346 54.0003V14.0003C67.3346 10.3337 64.3346 7.33366 60.668 7.33366ZM34.0013 50.667C24.8013 50.667 17.3346 43.2003 17.3346 34.0003C17.3346 24.8003 24.8013 17.3337 34.0013 17.3337C43.2013 17.3337 50.668 24.8003 50.668 34.0003C50.668 43.2003 43.2013 50.667 34.0013 50.667Z" fill="#BEC5D7"/>
</svg>
