<svg width="182" height="166" viewBox="0 0 182 166" fill="none" xmlns="http://www.w3.org/2000/svg">
<path d="M70.7192 154.835C67.8746 154.835 65.4885 153.853 63.5609 151.888C61.6333 149.924 60.6728 147.483 60.6795 144.567C60.6795 141.658 61.6433 139.221 63.5709 137.257C65.4985 135.292 67.8813 134.306 70.7192 134.299H171.116C173.961 134.299 176.347 135.285 178.274 137.257C180.202 139.228 181.162 141.665 181.156 144.567C181.156 147.476 180.192 149.917 178.264 151.888C176.337 153.86 173.954 154.842 171.116 154.835H70.7192ZM70.7192 93.228C67.8746 93.228 65.4885 92.2457 63.5609 90.2811C61.6333 88.3165 60.6728 85.8762 60.6795 82.9601C60.6795 80.0509 61.6433 77.6106 63.5709 75.6391C65.4985 73.6677 67.8813 72.6854 70.7192 72.6923H171.116C173.961 72.6923 176.347 73.678 178.274 75.6494C180.202 77.6208 181.162 80.0577 181.156 82.9601C181.156 85.8693 180.192 88.3097 178.264 90.2811C176.337 92.2525 173.954 93.2348 171.116 93.228H70.7192ZM70.7192 31.6208C67.8746 31.6208 65.4885 30.6385 63.5609 28.674C61.6333 26.7094 60.6728 24.2691 60.6795 21.353C60.6795 18.4438 61.6433 16.0034 63.5709 14.032C65.4985 12.0606 67.8813 11.0783 70.7192 11.0851H171.116C173.961 11.0851 176.347 12.0708 178.274 14.0423C180.202 16.0137 181.162 18.4506 181.156 21.353C181.156 24.2622 180.192 26.7025 178.264 28.674C176.337 30.6454 173.954 31.6277 171.116 31.6208H70.7192ZM20.5208 165.103C14.999 165.103 10.2703 163.094 6.33471 159.076C2.39916 155.058 0.43473 150.221 0.441423 144.567C0.441423 138.92 2.4092 134.087 6.34476 130.069C10.2803 126.051 15.0057 124.038 20.5208 124.032C26.0426 124.032 30.7713 126.044 34.7069 130.069C38.6424 134.094 40.6068 138.927 40.6001 144.567C40.6001 150.215 38.6324 155.051 34.6968 159.076C30.7613 163.101 26.0359 165.11 20.5208 165.103ZM20.5208 103.496C14.999 103.496 10.2703 101.487 6.33471 97.4686C2.39916 93.4504 0.43473 88.6143 0.441423 82.9601C0.441423 77.3128 2.4092 72.4766 6.34476 68.4516C10.2803 64.4266 15.0057 62.4176 20.5208 62.4244C26.0426 62.4244 30.7713 64.4369 34.7069 68.4619C38.6424 72.4869 40.6068 77.3196 40.6001 82.9601C40.6001 88.6074 38.6324 93.4436 34.6968 97.4686C30.7613 101.494 26.0359 103.503 20.5208 103.496ZM20.5208 41.8887C14.999 41.8887 10.2703 39.8796 6.33471 35.8615C2.39916 31.8433 0.43473 27.0071 0.441423 21.353C0.441423 15.7057 2.4092 10.8695 6.34476 6.84451C10.2803 2.81951 15.0057 0.810433 20.5208 0.817278C26.0426 0.817278 30.7713 2.82978 34.7069 6.85477C38.6424 10.8798 40.6068 15.7125 40.6001 21.353C40.6001 27.0003 38.6324 31.8365 34.6968 35.8615C30.7613 39.8865 26.0359 41.8955 20.5208 41.8887Z" fill="#7D8BAE"/>
</svg>
