<svg width="20" height="19" viewBox="0 0 20 19" fill="none" xmlns="http://www.w3.org/2000/svg">
<path d="M5.5 0.990723C2.4624 0.990723 0 3.45273 0 6.49073C0 9.67474 1.8135 12.6787 4.8125 15.4287C5.8361 16.3667 6.9382 17.1897 8.0312 17.9287C8.4143 18.1867 8.7726 18.4208 9.0938 18.6158C9.2896 18.7348 9.4187 18.8208 9.5 18.8658C9.802 19.0338 10.198 19.0338 10.5 18.8658C10.5813 18.8208 10.7104 18.7348 10.9062 18.6158C11.2274 18.4208 11.5857 18.1867 11.9688 17.9287C13.0618 17.1897 14.1639 16.3667 15.1875 15.4287C18.1865 12.6787 20 9.67474 20 6.49073C20 3.45273 17.5376 0.990723 14.5 0.990723C12.7748 0.990723 11.0904 1.93074 10.0312 3.30274C8.9984 1.90674 7.3199 0.990723 5.5 0.990723Z" fill="#FF8F8F"/>
</svg>
