<svg width="20" height="18" viewBox="0 0 20 18" fill="none" xmlns="http://www.w3.org/2000/svg">
<path d="M5.5 -3.8147e-05C2.4624 -3.8147e-05 -3.8147e-06 2.46197 -3.8147e-06 5.49997C-3.8147e-06 8.68398 1.8135 11.688 4.8125 14.438C5.8361 15.376 6.9382 16.199 8.0312 16.938C8.4143 17.196 8.7726 17.43 9.0938 17.625C9.2896 17.744 9.4187 17.83 9.5 17.875C9.802 18.043 10.198 18.043 10.5 17.875C10.5813 17.83 10.7104 17.744 10.9062 17.625C11.2274 17.43 11.5857 17.196 11.9688 16.938C13.0618 16.199 14.1639 15.376 15.1875 14.438C18.1865 11.688 20 8.68398 20 5.49997C20 2.46197 17.5376 -3.8147e-05 14.5 -3.8147e-05C12.7748 -3.8147e-05 11.0904 0.939976 10.0312 2.31198C8.9984 0.915976 7.3199 -3.8147e-05 5.5 -3.8147e-05ZM10 16C11.2139 16 13.1617 10.1727 14 10.375C9.07761 9.18701 9.9071 15.67 10 15.812C10.3869 16.405 11.5626 15.861 11.9688 15.281C12.0676 15.14 15.5 16.312 17 10.375C17.6811 9.423 14.6848 11.875 15.8116 11.875C17.7446 11.875 17 6.875 18 6.875C15 6.375 16.4385 10.53 13.8125 12.938C12.8673 13.804 11.8601 14.594 10.8438 15.281C10.5365 15.489 10.2624 15.651 10 15.812C9.7376 15.651 9.4635 15.489 9.1562 15.281C8.1399 14.594 7.1327 13.804 6.1875 12.938C3.5615 10.53 9.5 18.503 9.5 16C9.5 14.067 8.067 16 10 16Z" fill="#FF8F8F"/>
</svg>
