<svg width="20" height="19" viewBox="0 0 20 19" fill="none" xmlns="http://www.w3.org/2000/svg">
<path d="M5.5 0.990723C2.4624 0.990723 0 3.45273 0 6.49073C0 9.67474 1.8135 12.6787 4.8125 15.4287C5.8361 16.3667 6.9382 17.1897 8.0312 17.9287C8.4143 18.1867 8.7726 18.4208 9.0938 18.6158C9.2896 18.7348 9.4187 18.8208 9.5 18.8658C9.802 19.0338 10.198 19.0338 10.5 18.8658C10.5813 18.8208 10.7104 18.7348 10.9062 18.6158C11.2274 18.4208 11.5857 18.1867 11.9688 17.9287C13.0618 17.1897 14.1639 16.3667 15.1875 15.4287C18.1865 12.6787 20 9.67474 20 6.49073C20 3.45273 17.5376 0.990723 14.5 0.990723C12.7748 0.990723 11.0904 1.93074 10.0312 3.30274C8.9984 1.90674 7.3199 0.990723 5.5 0.990723ZM5.5 2.99073C6.7139 2.99073 7.8475 3.60674 8.5 4.55274C8.5634 4.64474 9.0633 5.37974 9.1562 5.52174C9.5431 6.11474 10.4063 6.13275 10.8125 5.55274C10.9113 5.41174 11.4316 4.67972 11.5 4.58472C12.1811 3.63272 13.3732 2.99073 14.5 2.99073C16.433 2.99073 18 4.55773 18 6.49073C18 8.99374 16.4385 11.5207 13.8125 13.9287C12.8673 14.7947 11.8601 15.5848 10.8438 16.2718C10.5365 16.4798 10.2624 16.6418 10 16.8028C9.7376 16.6418 9.4635 16.4798 9.1562 16.2718C8.1399 15.5848 7.1327 14.7947 6.1875 13.9287C3.5615 11.5207 2 8.99374 2 6.49073C2 4.55773 3.567 2.99073 5.5 2.99073Z" fill="#FF8F8F"/>
</svg>
