<svg width="14" height="12" viewBox="0 0 14 12" fill="none" xmlns="http://www.w3.org/2000/svg">
<path d="M12.9285 0.0396376C12.6743 -0.0231855 12.3855 -0.0132949 12.0316 0.0834102C9.98111 0.643876 1.83019 3.3149 1.15944 3.61419C0.428409 3.94031 0.00657964 4.51489 6.94892e-05 5.26877C-0.00861071 6.27676 0.797107 7.06805 1.75011 7.03417C1.78077 7.03346 2.95995 7.04971 3.6314 7.05677C3.6314 7.05677 4.23076 10.0786 4.24525 10.1146C4.42018 10.548 4.83053 10.6772 5.18453 10.5212L7.17523 9.63814C7.40057 9.86191 8.91568 11.3379 9.07836 11.4699C9.5632 11.8624 9.98215 11.9859 10.5003 11.9993C11.3345 12.0212 12.0632 11.5264 12.4472 10.7196C12.6882 10.2134 13.8115 3.12574 13.9129 2.42268C14.0738 1.30669 14.0374 0.868341 13.5847 0.414462C13.4028 0.232346 13.1826 0.101755 12.9285 0.0396376ZM12.6003 1.40833C12.6003 1.40833 12.6343 1.53327 12.5347 2.22362C12.1783 4.6956 11.3337 9.7532 11.1566 10.1676C11.0355 10.4513 10.793 10.5946 10.5221 10.5868C10.2838 10.5805 10.1651 10.5381 9.95338 10.3666C9.84446 10.2784 9.35438 9.80897 8.66276 9.13062C8.65408 9.12215 7.28331 7.77322 7.28331 7.77322C7.14968 7.6391 7.0241 7.55933 6.76096 7.55651C6.60794 7.55651 6.40598 7.6737 6.40598 7.6737L5.3533 8.57229L4.98768 6.76946L9.38462 4.87208C9.73981 4.71819 9.90928 4.30313 9.75654 3.94525C9.60387 3.58666 9.19296 3.41585 8.83777 3.56973L4.06891 5.6443C3.79737 5.64289 1.77398 5.61959 1.70636 5.62242C1.5506 5.62736 1.39835 5.47347 1.4001 5.26877C1.4015 5.105 1.47311 5.00761 1.7282 4.89396C2.31943 4.62996 10.3719 1.99632 12.3594 1.4535C12.5469 1.40197 12.6003 1.40833 12.6003 1.40833Z" fill="#7D8BAE"/>
</svg>
