<svg width="14" height="14" viewBox="0 0 14 14" fill="none" xmlns="http://www.w3.org/2000/svg">
<path d="M0 7C0 3.1339 3.13404 0 7 0C10.866 0 14 3.1339 14 7C14 10.8661 10.866 14 7 14C3.13404 14 0 10.8661 0 7Z" fill="#7D8BAE"/>
<path d="M3.70643 3.23096C3.58604 3.23096 3.46014 3.27145 3.36826 3.36326C3.18454 3.54735 3.18454 3.8562 3.36826 4.04029L6.3234 6.99748L3.36826 9.95468C3.18454 10.1388 3.18454 10.4476 3.36826 10.6317C3.55202 10.8153 3.86084 10.8153 4.0446 10.6317L6.9997 7.67452L9.9548 10.6317C10.1386 10.8153 10.4474 10.8153 10.6311 10.6317C10.8149 10.4476 10.8149 10.1388 10.6311 9.95468L7.676 6.99748L10.6311 4.04029C10.8149 3.8562 10.8149 3.54735 10.6311 3.36326C10.5393 3.27145 10.4133 3.23096 10.293 3.23096C10.1726 3.23096 10.0467 3.27145 9.9548 3.36326L6.9997 6.32045L4.0446 3.36326C3.95272 3.27145 3.82682 3.23096 3.70643 3.23096Z" fill="white"/>
</svg>
